<svg width="42" height="42" viewBox="0 0 42 42" fill="none" xmlns="http://www.w3.org/2000/svg">
<rect width="42" height="42" rx="2" fill="#AA9FC1"/>
<path d="M16.8563 28.8442H20.713V13.2225H16.8563V19.3421H10.8568V13.2225H7V28.8442H10.8568V22.4131H16.8563V28.8442Z" fill="#2D263B"/>
<path d="M35 24.1933C35 18.9638 27.1736 20.1878 27.1736 17.4729C27.1736 16.4937 27.8728 16.0264 28.7976 16.0487C29.8351 16.0709 30.5568 16.6718 30.6245 17.6732H34.797C34.6391 14.6912 32.316 13 28.8652 13C25.5497 13 23.0913 14.6467 23.0913 17.6064C23.0462 23.1474 30.9628 21.5897 30.9628 24.4826C30.9628 25.395 30.241 25.9513 29.1133 25.9513C28.0307 25.9513 27.2639 25.3727 27.1511 24.1711H23.0462C23.159 27.331 25.8204 29 29.2261 29C32.925 29 35 26.8192 35 24.1933Z" fill="#2D263B"/>
</svg>
